<svg width="600" height="400" viewBox="0 0 600 400" fill="none" xmlns="http://www.w3.org/2000/svg">
  <!-- Background elements -->
  <circle cx="500" cy="80" r="40" fill="#4ECDC4" opacity="0.1"/>
  <circle cx="120" cy="320" r="30" fill="#4A90E2" opacity="0.1"/>
  <rect x="480" y="300" width="80" height="60" rx="8" fill="#FFE066" opacity="0.2"/>
  
  <!-- Main platform/stage -->
  <ellipse cx="300" cy="350" rx="250" ry="30" fill="#E8F4FD" opacity="0.8"/>
  
  <!-- Laptops/Devices -->
  <rect x="80" y="200" width="120" height="80" rx="8" fill="#2C3E50"/>
  <rect x="85" y="205" width="110" height="65" rx="4" fill="#4A90E2"/>
  <rect x="90" y="210" width="100" height="50" rx="2" fill="#E8F4FD"/>
  
  <rect x="420" y="180" width="100" height="70" rx="6" fill="#2C3E50"/>
  <rect x="425" y="185" width="90" height="55" rx="3" fill="#4ECDC4"/>
  <rect x="430" y="190" width="80" height="40" rx="2" fill="#F0F8FF"/>
  
  <!-- People figures -->
  <!-- Person 1 - Teacher/Admin -->
  <circle cx="150" cy="160" r="20" fill="#FFB366"/>
  <rect x="140" y="180" width="20" height="40" rx="10" fill="#4A90E2"/>
  <rect x="135" y="190" width="30" height="30" rx="15" fill="#2C3E50"/>
  
  <!-- Person 2 - Student -->
  <circle cx="250" cy="170" r="18" fill="#FFB366"/>
  <rect x="242" y="188" width="16" height="35" rx="8" fill="#4ECDC4"/>
  <rect x="238" y="195" width="24" height="25" rx="12" fill="#5A6C7D"/>
  
  <!-- Person 3 - Parent -->
  <circle cx="350" cy="165" r="19" fill="#FFB366"/>
  <rect x="341" y="184" width="18" height="38" rx="9" fill="#4A90E2"/>
  <rect x="337" y="192" width="26" height="28" rx="13" fill="#2C3E50"/>
  
  <!-- Person 4 - Student (smaller) -->
  <circle cx="200" cy="200" r="15" fill="#FFB366"/>
  <rect x="193" y="215" width="14" height="30" rx="7" fill="#FFE066"/>
  <rect x="190" y="220" width="20" height="22" rx="10" fill="#4ECDC4"/>
  
  <!-- Person 5 - Community member -->
  <circle cx="400" cy="190" r="17" fill="#FFB366"/>
  <rect x="392" y="207" width="16" height="33" rx="8" fill="#4A90E2"/>
  <rect x="388" y="213" width="24" height="25" rx="12" fill="#5A6C7D"/>
  
  <!-- Connection lines/network -->
  <line x1="150" y1="180" x2="250" y2="190" stroke="#4A90E2" stroke-width="2" opacity="0.3"/>
  <line x1="250" y1="190" x2="350" y2="185" stroke="#4ECDC4" stroke-width="2" opacity="0.3"/>
  <line x1="200" y1="220" x2="150" y2="200" stroke="#4A90E2" stroke-width="2" opacity="0.3"/>
  <line x1="350" y1="185" x2="400" y2="207" stroke="#4ECDC4" stroke-width="2" opacity="0.3"/>
  
  <!-- Floating UI elements -->
  <rect x="320" y="100" width="60" height="40" rx="8" fill="#FFFFFF" stroke="#4A90E2" stroke-width="2"/>
  <circle cx="335" cy="115" r="8" fill="#4ECDC4"/>
  <rect x="345" y="110" width="25" height="4" rx="2" fill="#E8F4FD"/>
  <rect x="345" y="118" width="20" height="4" rx="2" fill="#E8F4FD"/>
  
  <rect x="480" y="120" width="50" height="35" rx="6" fill="#FFFFFF" stroke="#4ECDC4" stroke-width="2"/>
  <circle cx="490" cy="132" r="6" fill="#FFE066"/>
  <rect x="500" y="128" width="20" height="3" rx="1.5" fill="#E8F4FD"/>
  <rect x="500" y="134" width="15" height="3" rx="1.5" fill="#E8F4FD"/>
  
  <!-- School building icon -->
  <rect x="50" y="120" width="80" height="60" rx="4" fill="#FFFFFF" stroke="#4A90E2" stroke-width="3"/>
  <rect x="60" y="130" width="15" height="20" rx="2" fill="#4A90E2"/>
  <rect x="80" y="130" width="15" height="20" rx="2" fill="#4A90E2"/>
  <rect x="100" y="130" width="15" height="20" rx="2" fill="#4A90E2"/>
  <rect x="60" y="155" width="15" height="20" rx="2" fill="#4A90E2"/>
  <rect x="80" y="155" width="15" height="20" rx="2" fill="#4A90E2"/>
  <rect x="100" y="155" width="15" height="20" rx="2" fill="#4A90E2"/>
  <polygon points="45,120 90,95 135,120" fill="#4A90E2"/>
  
  <!-- Decorative elements -->
  <circle cx="450" cy="60" r="3" fill="#4ECDC4"/>
  <circle cx="470" cy="45" r="2" fill="#FFE066"/>
  <circle cx="490" cy="70" r="2.5" fill="#4A90E2"/>
  
  <circle cx="100" cy="50" r="2.5" fill="#4ECDC4"/>
  <circle cx="120" cy="35" r="2" fill="#FFE066"/>
  <circle cx="140" cy="60" r="3" fill="#4A90E2"/>
  
  <!-- Message/notification bubbles -->
  <circle cx="180" cy="140" r="12" fill="#4ECDC4"/>
  <path d="M175 135 L185 135 M175 140 L185 140 M175 145 L180 145" stroke="#FFFFFF" stroke-width="1.5"/>
  
  <circle cx="320" cy="150" r="10" fill="#FFE066"/>
  <circle cx="320" cy="150" r="3" fill="#FFFFFF"/>
</svg>
